<svg width="9" height="6" viewBox="0 0 9 6" fill="none" xmlns="http://www.w3.org/2000/svg">
<path fill-rule="evenodd" clip-rule="evenodd" d="M0.232392 0.119082C0.490697 -0.0777164 0.859631 -0.027856 1.05643 0.230449L3.98902 4.07958C4.06205 4.12796 4.1687 4.128 4.24176 4.07967L7.17703 0.232582C7.37401 -0.0255857 7.74298 -0.075189 8.00114 0.121789C8.25931 0.318768 8.30892 0.687736 8.11194 0.945904L5.16654 4.80626C5.13217 4.85131 5.08015 4.91366 5.00812 4.9733C4.49487 5.39827 3.73498 5.39801 3.22204 4.97268C3.15004 4.91298 3.09807 4.8506 3.06373 4.80553L0.121024 0.943119C-0.0757739 0.684814 -0.0259129 0.31588 0.232392 0.119082Z" fill="#3C4242"/>
</svg>
