<svg width="9" height="6" viewBox="0 0 9 6" fill="none" xmlns="http://www.w3.org/2000/svg">
<path fill-rule="evenodd" clip-rule="evenodd" d="M8.20265 5.31578C7.94441 5.51267 7.57546 5.46294 7.37857 5.2047L4.44464 1.35659C4.37159 1.30823 4.26495 1.30823 4.1919 1.35659L1.25797 5.2047C1.06108 5.46294 0.692129 5.51267 0.433893 5.31578C0.175656 5.11889 0.125924 4.74994 0.322812 4.4917L3.26687 0.630317C3.30122 0.585256 3.35321 0.522894 3.42523 0.463225C3.93832 0.0380759 4.69821 0.0380759 5.21131 0.463225C5.28332 0.522894 5.33532 0.585256 5.36967 0.630317L8.31373 4.4917C8.51061 4.74994 8.46088 5.11889 8.20265 5.31578Z" fill="#3C4242"/>
</svg>
